<?xml version="1.0" encoding="UTF-8"?>
<!DOCTYPE svg PUBLIC "-//W3C//DTD SVG 1.1//EN" "http://www.w3.org/Graphics/SVG/1.1/DTD/svg11.dtd">
<svg xmlns="http://www.w3.org/2000/svg" version="1.1" width="2048px" height="2048px" style="shape-rendering:geometricPrecision; text-rendering:geometricPrecision; image-rendering:optimizeQuality; fill-rule:evenodd; clip-rule:evenodd" xmlns:xlink="http://www.w3.org/1999/xlink">
<g><path style="opacity:1" fill="#a1d2fe" d="M -0.5,-0.5 C 682.167,-0.5 1364.83,-0.5 2047.5,-0.5C 2047.5,682.167 2047.5,1364.83 2047.5,2047.5C 1364.83,2047.5 682.167,2047.5 -0.5,2047.5C -0.5,1364.83 -0.5,682.167 -0.5,-0.5 Z"/></g>
<g><path style="opacity:1" fill="#cae1fe" d="M 1047.5,666.5 C 1031.46,697.277 1019.29,729.61 1011,763.5C 1012.38,735.452 1017.54,708.119 1026.5,681.5C 1062.17,569.359 1128.5,480.193 1225.5,414C 1273.96,382.965 1326.96,365.632 1384.5,362C 1433.96,359.532 1479.96,370.866 1522.5,396C 1552.38,413.873 1577.88,436.707 1599,464.5C 1619.31,494.768 1637.31,526.435 1653,559.5C 1657.25,575.399 1662.25,591.065 1668,606.5C 1673.29,629.267 1678.95,651.934 1685,674.5C 1688.31,688.663 1689.65,702.997 1689,717.5C 1688.29,719.081 1687.46,720.581 1686.5,722C 1685.5,722.667 1684.5,722.667 1683.5,722C 1654.69,695.766 1625.69,669.766 1596.5,644C 1585.53,631.367 1574.2,619.033 1562.5,607C 1557.33,603.915 1552.33,600.581 1547.5,597C 1549.17,596.333 1550.83,596.333 1552.5,597C 1567.08,603.793 1581.75,610.293 1596.5,616.5C 1585.07,585.968 1569.24,557.968 1549,532.5C 1521.16,495.321 1487.66,464.488 1448.5,440C 1421.89,424.795 1393.55,414.129 1363.5,408C 1353.54,406.577 1343.54,406.244 1333.5,407C 1316.49,409.278 1299.49,411.612 1282.5,414C 1270.7,416.493 1259.03,419.493 1247.5,423C 1208.59,445.911 1174.09,474.411 1144,508.5C 1105.65,552.813 1075.65,602.48 1054,657.5C 1051.59,660.397 1049.42,663.397 1047.5,666.5 Z"/></g>
<g><path style="opacity:1" fill="#014aad" d="M 1488.5,606.5 C 1492.38,612.907 1496.55,619.241 1501,625.5C 1505.7,631.688 1510.53,637.688 1515.5,643.5C 1518.29,650.378 1520.79,657.378 1523,664.5C 1528.17,683.302 1530.33,702.469 1529.5,722C 1530,744.111 1527.84,765.945 1523,787.5C 1512.67,828.32 1498.51,867.653 1480.5,905.5C 1475.59,914.349 1470.76,923.349 1466,932.5C 1464.63,946.548 1463.13,960.548 1461.5,974.5C 1459.12,979.433 1456.62,984.433 1454,989.5C 1449.3,1001.85 1445.8,1014.51 1443.5,1027.5C 1443.56,1030.11 1444.56,1032.28 1446.5,1034C 1451.92,1033.75 1456.75,1031.92 1461,1028.5C 1465.35,1014.81 1470.52,1001.48 1476.5,988.5C 1489.47,966.212 1500.64,942.879 1510,918.5C 1510.71,917.619 1511.54,916.953 1512.5,916.5C 1516.19,911.297 1520.52,906.463 1525.5,902C 1531.01,899.081 1536.67,896.414 1542.5,894C 1565.2,887.698 1581.53,894.864 1591.5,915.5C 1593.19,925.059 1593.69,934.725 1593,944.5C 1590.05,955.77 1587.05,967.104 1584,978.5C 1582.33,980.833 1580.67,983.167 1579,985.5C 1578.05,988.432 1577.55,991.432 1577.5,994.5C 1576.5,994.5 1575.5,994.5 1574.5,994.5C 1572.93,1002.95 1571.6,1011.45 1570.5,1020C 1569.14,1029.64 1573.14,1033.31 1582.5,1031C 1585.64,1030.4 1588.64,1029.4 1591.5,1028C 1596.51,1023.47 1600.67,1018.31 1604,1012.5C 1608.73,1008.26 1613.56,1004.26 1618.5,1000.5C 1645,1003.49 1656.83,1018.15 1654,1044.5C 1652.95,1050.64 1651.29,1056.64 1649,1062.5C 1644.03,1073.75 1639.36,1085.08 1635,1096.5C 1624.45,1114.75 1614.78,1133.42 1606,1152.5C 1593.04,1176.49 1576.54,1197.99 1556.5,1217C 1549.78,1220.69 1543.44,1224.85 1537.5,1229.5C 1530.81,1233.09 1523.81,1235.92 1516.5,1238C 1506.89,1239.36 1497.22,1239.86 1487.5,1239.5C 1484.15,1239.67 1480.82,1239.5 1477.5,1239C 1469.99,1236.88 1462.99,1233.71 1456.5,1229.5C 1448.28,1224.11 1442.45,1216.78 1439,1207.5C 1438.28,1206.94 1437.44,1206.61 1436.5,1206.5C 1429.71,1213.44 1422.38,1219.94 1414.5,1226C 1407.13,1229.44 1399.96,1233.27 1393,1237.5C 1389.95,1245.26 1387.78,1253.26 1386.5,1261.5C 1380.69,1272.61 1374.69,1283.78 1368.5,1295C 1342.61,1311.06 1316.61,1326.89 1290.5,1342.5C 1258.8,1344.49 1232.97,1333.49 1213,1309.5C 1208.52,1302.15 1204.18,1294.81 1200,1287.5C 1197.1,1281.04 1194.77,1274.37 1193,1267.5C 1192.55,1262.47 1191.89,1257.47 1191,1252.5C 1190.69,1251.69 1190.19,1251.03 1189.5,1250.5C 1130.23,1296.98 1066.89,1337.14 999.5,1371C 980.851,1379.5 962.184,1387.66 943.5,1395.5C 932.216,1388.85 921.216,1381.69 910.5,1374C 908.789,1372.87 908.289,1371.37 909,1369.5C 978.255,1319.46 1047.42,1269.29 1116.5,1219C 1099.16,1211.82 1084.49,1200.99 1072.5,1186.5C 1072.44,1185.96 1072.11,1185.62 1071.5,1185.5C 1069.17,1187.78 1066.51,1189.62 1063.5,1191C 1060.62,1193.28 1058.62,1196.11 1057.5,1199.5C 1057.17,1199.5 1056.83,1199.5 1056.5,1199.5C 1050.33,1201.43 1045.33,1205.1 1041.5,1210.5C 1038.51,1212.33 1035.51,1214.16 1032.5,1216C 1030.54,1217.45 1029.2,1219.28 1028.5,1221.5C 1009.63,1235.18 990.293,1248.35 970.5,1261C 968.244,1263.08 966.244,1265.25 964.5,1267.5C 958.784,1269.02 954.118,1272.02 950.5,1276.5C 931.684,1290.41 913.017,1304.58 894.5,1319C 877.288,1329.77 859.621,1339.77 841.5,1349C 813.502,1370.35 783.502,1388.68 751.5,1404C 743.181,1408 734.515,1411 725.5,1413C 724.383,1416.07 724.216,1419.24 725,1422.5C 727.001,1425.33 729.167,1428 731.5,1430.5C 730.726,1431.15 729.726,1431.48 728.5,1431.5C 705.103,1428.03 683.103,1420.7 662.5,1409.5C 661.593,1392.54 662.759,1375.54 666,1358.5C 668.641,1351.52 673.141,1346.02 679.5,1342C 688.052,1340.09 696.719,1339.09 705.5,1339C 706.727,1337.41 706.394,1336.08 704.5,1335C 695.614,1334.31 686.947,1332.64 678.5,1330C 669.726,1321.96 663.892,1312.12 661,1300.5C 660.041,1286.8 659.541,1273.13 659.5,1259.5C 658.833,1215.5 658.167,1215.5 657.5,1259.5C 655.266,1271.29 653.433,1283.29 652,1295.5C 648.569,1304.37 644.569,1313.03 640,1321.5C 636.707,1324.79 632.873,1327.29 628.5,1329C 619.989,1331.42 611.322,1332.92 602.5,1333.5C 596.12,1313.89 593.454,1293.73 594.5,1273C 594.49,1261.47 594.99,1249.97 596,1238.5C 598.411,1224.43 600.744,1210.43 603,1196.5C 587.743,1209.44 572.243,1221.94 556.5,1234C 548.491,1238.34 540.491,1242.67 532.5,1247C 524.337,1250.39 516.003,1253.39 507.5,1256C 501.215,1256.1 495.215,1257.43 489.5,1260C 471.161,1261.8 452.828,1261.8 434.5,1260C 390.945,1249.31 364.112,1222.15 354,1178.5C 348.826,1148.17 354.159,1120.17 370,1094.5C 371.794,1084.79 373.794,1075.12 376,1065.5C 382.485,1046.69 392.985,1030.52 407.5,1017C 410.392,1014.44 413.559,1012.28 417,1010.5C 417.704,1008.72 418.204,1006.89 418.5,1005C 417.247,989.166 417.414,973.332 419,957.5C 421.178,947.257 424.178,937.257 428,927.5C 430.147,923.894 432.147,920.227 434,916.5C 437.207,908.768 439.207,900.768 440,892.5C 453.742,847.444 480.908,813.278 521.5,790C 525.342,789.279 528.676,787.613 531.5,785C 542.276,781.134 552.943,777.134 563.5,773C 571.383,772.225 579.05,770.558 586.5,768C 598.529,767.569 610.529,766.735 622.5,765.5C 635.153,766.509 647.819,767.342 660.5,768C 667.576,770.638 674.909,772.305 682.5,773C 729.849,788.849 761.849,820.349 778.5,867.5C 779.822,867.67 780.989,867.337 782,866.5C 801.634,836.196 826.134,810.362 855.5,789C 872.441,780.009 890.108,772.676 908.5,767C 945.754,735.287 984.921,706.12 1026,679.5C 1026.46,680.094 1026.63,680.761 1026.5,681.5C 1017.54,708.119 1012.38,735.452 1011,763.5C 1019.29,729.61 1031.46,697.277 1047.5,666.5C 1107.49,629.879 1171.15,601.045 1238.5,580C 1266.77,572.577 1295.44,566.911 1324.5,563C 1364.91,558.413 1404.24,562.746 1442.5,576C 1460.07,582.94 1475.4,593.107 1488.5,606.5 Z"/></g>
<g><path style="opacity:1" fill="#c9e1fe" d="M 1488.5,606.5 C 1488.74,605.903 1489.24,605.57 1490,605.5C 1495.28,607.216 1499.78,610.049 1503.5,614C 1509.96,616.059 1515.62,619.393 1520.5,624C 1532.71,630.936 1545.04,637.602 1557.5,644C 1583.46,664.956 1609.13,686.29 1634.5,708C 1641.53,714.697 1648.2,721.697 1654.5,729C 1666.76,738.713 1678.92,748.547 1691,758.5C 1688.41,774.877 1685.41,791.21 1682,807.5C 1669.27,858.032 1653.93,907.699 1636,956.5C 1630.4,971.345 1624.57,986.011 1618.5,1000.5C 1613.56,1004.26 1608.73,1008.26 1604,1012.5C 1600.67,1018.31 1596.51,1023.47 1591.5,1028C 1588.64,1029.4 1585.64,1030.4 1582.5,1031C 1573.14,1033.31 1569.14,1029.64 1570.5,1020C 1571.6,1011.45 1572.93,1002.95 1574.5,994.5C 1575.5,994.5 1576.5,994.5 1577.5,994.5C 1577.55,991.432 1578.05,988.432 1579,985.5C 1580.67,983.167 1582.33,980.833 1584,978.5C 1587.05,967.104 1590.05,955.77 1593,944.5C 1593.69,934.725 1593.19,925.059 1591.5,915.5C 1591.19,910.629 1592.03,905.963 1594,901.5C 1611.64,852.251 1629.47,803.085 1647.5,754C 1633.36,740.766 1619.02,727.766 1604.5,715C 1575.16,690.727 1545.49,666.894 1515.5,643.5C 1510.53,637.688 1505.7,631.688 1501,625.5C 1496.55,619.241 1492.38,612.907 1488.5,606.5 Z"/></g>
<g><path style="opacity:1" fill="#a0d1fe" d="M 1515.5,643.5 C 1545.49,666.894 1575.16,690.727 1604.5,715C 1619.02,727.766 1633.36,740.766 1647.5,754C 1629.47,803.085 1611.64,852.251 1594,901.5C 1592.03,905.963 1591.19,910.629 1591.5,915.5C 1581.53,894.864 1565.2,887.698 1542.5,894C 1536.67,896.414 1531.01,899.081 1525.5,902C 1520.52,906.463 1516.19,911.297 1512.5,916.5C 1511.49,913.951 1510.66,911.285 1510,908.5C 1509.67,908.833 1509.33,909.167 1509,909.5C 1508.67,908.5 1508.33,907.5 1508,906.5C 1507.28,907.451 1506.45,907.617 1505.5,907C 1500.02,902.351 1494.68,897.518 1489.5,892.5C 1486.71,897.113 1483.71,901.446 1480.5,905.5C 1498.51,867.653 1512.67,828.32 1523,787.5C 1527.84,765.945 1530,744.111 1529.5,722C 1530.33,702.469 1528.17,683.302 1523,664.5C 1520.79,657.378 1518.29,650.378 1515.5,643.5 Z"/></g>
<g><path style="opacity:1" fill="#c4dcfc" d="M 1038.5,763.5 C 1039.12,763.611 1039.62,763.944 1040,764.5C 1042.67,780.54 1045.34,796.54 1048,812.5C 1051.92,819.211 1057.75,823.045 1065.5,824C 1066.38,825.356 1066.71,826.856 1066.5,828.5C 1063.21,828.259 1060.21,829.092 1057.5,831C 1048.31,836.884 1042.14,845.05 1039,855.5C 1037,864.167 1035,872.833 1033,881.5C 1031.64,866.448 1029.98,851.448 1028,836.5C 1023.71,830.892 1018.21,826.725 1011.5,824C 1022.57,820.594 1030.07,813.427 1034,802.5C 1035.92,789.514 1037.42,776.514 1038.5,763.5 Z"/></g>
<g><path style="opacity:1" fill="#d2eafe" d="M 620.5,784.5 C 697.905,783.745 747.072,820.412 768,894.5C 768.93,899.799 769.597,905.133 770,910.5C 770.249,913.177 771.249,915.51 773,917.5C 790.717,882.426 813.884,851.26 842.5,824C 849.167,818.667 855.833,813.333 862.5,808C 869.7,803.904 876.7,799.571 883.5,795C 890.647,791.95 897.98,789.283 905.5,787C 963.882,778.382 988.382,803.216 979,861.5C 974.645,873.211 968.978,884.211 962,894.5C 958.434,897.699 954.6,900.533 950.5,903C 942.365,905.361 934.698,904.361 927.5,900C 924.366,899.21 921.366,899.543 918.5,901C 912.114,907.034 906.948,913.867 903,921.5C 891.508,951.736 884.675,983.069 882.5,1015.5C 883.62,1021.84 884.787,1028.18 886,1034.5C 888.106,1036.38 889.439,1038.71 890,1041.5C 902.991,1051.91 916.824,1053.07 931.5,1045C 941.075,1039.09 948.575,1031.26 954,1021.5C 962.163,992.987 973.163,965.653 987,939.5C 993.136,930.368 1000.3,922.201 1008.5,915C 1017.53,909.456 1027.2,908.123 1037.5,911C 1042.58,914.888 1045.41,920.054 1046,926.5C 1046.17,929.333 1046.33,932.167 1046.5,935C 1045.74,943.21 1044.57,951.376 1043,959.5C 1037.79,975.166 1032.46,990.833 1027,1006.5C 1025.75,1012.65 1024.59,1018.82 1023.5,1025C 1025.56,1046.18 1036.56,1053.51 1056.5,1047C 1059.43,1045.73 1062.1,1044.06 1064.5,1042C 1076.18,1030.48 1084.68,1016.98 1090,1001.5C 1093.96,995.736 1097.8,989.902 1101.5,984C 1100.33,979.833 1099.17,975.667 1098,971.5C 1093.13,918.245 1107.13,870.912 1140,829.5C 1176.38,791.711 1220.88,777.211 1273.5,786C 1317.16,795.665 1343.33,822.499 1352,866.5C 1353.19,878.328 1354.36,890.161 1355.5,902C 1351.36,984.308 1323.36,1056.81 1271.5,1119.5C 1274.75,1128.09 1277.92,1136.76 1281,1145.5C 1297.87,1177.94 1324.7,1192.11 1361.5,1188C 1366.04,1186.26 1370.71,1184.93 1375.5,1184C 1379.77,1181.62 1383.93,1179.12 1388,1176.5C 1392.42,1176.75 1394.58,1179.08 1394.5,1183.5C 1387.77,1218.49 1369.1,1244.99 1338.5,1263C 1320.68,1269.35 1302.34,1271.01 1283.5,1268C 1271.65,1264.06 1261.15,1257.89 1252,1249.5C 1239.66,1233.45 1231.32,1215.45 1227,1195.5C 1225.21,1182.89 1223.04,1170.39 1220.5,1158C 1219.5,1157.33 1218.5,1157.33 1217.5,1158C 1185.54,1173.38 1153.87,1172.72 1122.5,1156C 1098.98,1141.47 1084.48,1120.64 1079,1093.5C 1077.67,1094.83 1076.33,1096.17 1075,1097.5C 1065.56,1115.95 1053.39,1132.45 1038.5,1147C 1024.58,1159.79 1008.08,1166.62 989,1167.5C 969.96,1168.16 956.294,1160.16 948,1143.5C 947.089,1138.84 945.422,1134.5 943,1130.5C 942.096,1124.86 941.596,1119.2 941.5,1113.5C 939.61,1113.3 938.11,1113.96 937,1115.5C 922.744,1138.08 903.244,1154.58 878.5,1165C 864.5,1168.33 850.5,1168.33 836.5,1165C 818.602,1157.34 807.102,1144.17 802,1125.5C 796.617,1096.28 797.95,1067.28 806,1038.5C 813.385,1016.31 821.385,994.305 830,972.5C 830.687,968.42 831.687,964.42 833,960.5C 833.971,956.135 833.138,952.135 830.5,948.5C 826.96,946.028 823.293,945.861 819.5,948C 813.647,952.493 808.814,957.993 805,964.5C 801.55,970.281 798.55,976.281 796,982.5C 782.179,1022.3 770.179,1062.63 760,1103.5C 752.446,1133.37 733.279,1146.54 702.5,1143C 697.232,1141.41 691.899,1140.08 686.5,1139C 676.31,1131.11 671.643,1120.61 672.5,1107.5C 672.92,1096.98 674.42,1086.65 677,1076.5C 683.668,1053.16 690.335,1029.83 697,1006.5C 697.685,999.367 699.019,992.367 701,985.5C 702.53,975.477 702.53,965.477 701,955.5C 698.768,946.251 693.268,943.584 684.5,947.5C 683.243,949.679 681.743,951.679 680,953.5C 671.114,1000.45 656.114,1045.11 635,1087.5C 619.14,1115.69 598.64,1139.85 573.5,1160C 538.556,1183.96 499.889,1192.96 457.5,1187C 426.368,1179.54 405.202,1160.71 394,1130.5C 386.205,1100.17 390.538,1071.84 407,1045.5C 416.9,1031.59 430.067,1022.43 446.5,1018C 452.5,1017.33 458.5,1017.33 464.5,1018C 465.667,1019.17 466.833,1020.33 468,1021.5C 469.021,1033.04 473.855,1042.54 482.5,1050C 503.578,1061.78 525.578,1063.45 548.5,1055C 554.293,1052.27 559.96,1049.27 565.5,1046C 587.575,1029.25 605.409,1008.75 619,984.5C 631.255,961.369 638.755,936.702 641.5,910.5C 640.754,899.725 637.754,889.725 632.5,880.5C 618.786,868.268 603.786,866.435 587.5,875C 572.114,884.927 563.781,899.094 562.5,917.5C 562.507,927.802 566.174,936.468 573.5,943.5C 578.34,946.447 583.34,948.947 588.5,951C 589.862,958.853 589.695,966.687 588,974.5C 575.233,999.892 554.566,1012.89 526,1013.5C 490.726,1011.88 468.06,994.211 458,960.5C 448.9,908.34 463.4,864.173 501.5,828C 527.466,806.52 557.132,792.854 590.5,787C 600.654,786.164 610.654,785.331 620.5,784.5 Z"/></g>
<g><path style="opacity:1" fill="#014aad" d="M 1219.5,873.5 C 1245.29,870.822 1262.79,881.489 1272,905.5C 1275.93,923.117 1275.93,940.783 1272,958.5C 1267.83,976.196 1260.66,992.529 1250.5,1007.5C 1246.92,999.996 1243.59,992.329 1240.5,984.5C 1235.86,979.227 1231.69,973.56 1228,967.5C 1221.98,961.824 1215.15,957.324 1207.5,954C 1188.64,948.559 1169.64,948.059 1150.5,952.5C 1154.89,923.904 1168.89,901.07 1192.5,884C 1201.24,879.372 1210.24,875.872 1219.5,873.5 Z"/></g>
<g><path style="opacity:1" fill="#c8e0fe" d="M 1512.5,916.5 C 1511.54,916.953 1510.71,917.619 1510,918.5C 1500.64,942.879 1489.47,966.212 1476.5,988.5C 1474.48,986.494 1472.15,984.828 1469.5,983.5C 1467.5,979.834 1464.83,976.834 1461.5,974.5C 1463.13,960.548 1464.63,946.548 1466,932.5C 1470.76,923.349 1475.59,914.349 1480.5,905.5C 1483.71,901.446 1486.71,897.113 1489.5,892.5C 1494.68,897.518 1500.02,902.351 1505.5,907C 1506.45,907.617 1507.28,907.451 1508,906.5C 1508.33,907.5 1508.67,908.5 1509,909.5C 1509.33,909.167 1509.67,908.833 1510,908.5C 1510.66,911.285 1511.49,913.951 1512.5,916.5 Z"/></g>
<g><path style="opacity:1" fill="#d2eafe" d="M 1424.5,909.5 C 1441.1,907.433 1449.1,914.767 1448.5,931.5C 1448,939.209 1447.16,946.876 1446,954.5C 1439.37,974.752 1433.04,995.085 1427,1015.5C 1421.51,1044.01 1432.68,1054.51 1460.5,1047C 1463.06,1044.59 1466.06,1042.92 1469.5,1042C 1476.93,1034.32 1482.77,1025.49 1487,1015.5C 1494.49,987.89 1505.15,961.557 1519,936.5C 1525.57,925.591 1534.41,917.091 1545.5,911C 1564.74,904.921 1574.41,911.921 1574.5,932C 1573.61,939.867 1572.44,947.7 1571,955.5C 1563.53,975.784 1557.2,996.451 1552,1017.5C 1550.95,1028.46 1554.11,1037.96 1561.5,1046C 1573.15,1052.5 1584.15,1051.5 1594.5,1043C 1600.9,1036.27 1606.9,1029.27 1612.5,1022C 1623.15,1018.44 1630.98,1021.61 1636,1031.5C 1636.74,1035.26 1636.4,1038.93 1635,1042.5C 1627.11,1056.5 1619.77,1070.83 1613,1085.5C 1603.47,1103.1 1592.3,1119.6 1579.5,1135C 1569.31,1145.2 1557.97,1153.87 1545.5,1161C 1529.33,1167.6 1512.66,1168.93 1495.5,1165C 1488.84,1162.34 1483.34,1158.17 1479,1152.5C 1476.18,1146.89 1473.52,1141.22 1471,1135.5C 1469.73,1123.8 1469.06,1112.13 1469,1100.5C 1460.67,1115.8 1450.84,1130.14 1439.5,1143.5C 1430.66,1153.42 1420,1160.58 1407.5,1165C 1395.82,1166.9 1384.16,1166.9 1372.5,1165C 1358.68,1158.83 1349.85,1148.33 1346,1133.5C 1343.71,1122.79 1342.54,1111.96 1342.5,1101C 1343.12,1073.9 1347.28,1047.4 1355,1021.5C 1363.9,993.388 1375.23,966.388 1389,940.5C 1394.17,932.679 1400,925.513 1406.5,919C 1412.21,914.983 1418.21,911.816 1424.5,909.5 Z"/></g>
<g><path style="opacity:1" fill="#a0d1fe" d="M 1461.5,974.5 C 1464.83,976.834 1467.5,979.834 1469.5,983.5C 1472.15,984.828 1474.48,986.494 1476.5,988.5C 1470.52,1001.48 1465.35,1014.81 1461,1028.5C 1456.75,1031.92 1451.92,1033.75 1446.5,1034C 1444.56,1032.28 1443.56,1030.11 1443.5,1027.5C 1445.8,1014.51 1449.3,1001.85 1454,989.5C 1456.62,984.433 1459.12,979.433 1461.5,974.5 Z"/></g>
<g><path style="opacity:1" fill="#014aad" d="M 1174.5,997.5 C 1178.53,997.672 1182.53,998.172 1186.5,999C 1201.89,1009.02 1209.23,1023.18 1208.5,1041.5C 1192.57,1045.17 1177.23,1043.67 1162.5,1037C 1147.52,1023.87 1148.19,1011.54 1164.5,1000C 1167.91,999.004 1171.24,998.171 1174.5,997.5 Z"/></g>
<g><path style="opacity:1" fill="#cae1fe" d="M 1072.5,1186.5 C 1084.49,1200.99 1099.16,1211.82 1116.5,1219C 1047.42,1269.29 978.255,1319.46 909,1369.5C 908.289,1371.37 908.789,1372.87 910.5,1374C 921.216,1381.69 932.216,1388.85 943.5,1395.5C 984.896,1423.71 1026.73,1451.38 1069,1478.5C 1143.13,1433.52 1216.96,1388.19 1290.5,1342.5C 1316.61,1326.89 1342.61,1311.06 1368.5,1295C 1374.69,1283.78 1380.69,1272.61 1386.5,1261.5C 1393.98,1263.57 1400.98,1266.74 1407.5,1271C 1408.83,1271.67 1410.17,1271.67 1411.5,1271C 1424.32,1258.01 1437.32,1245.18 1450.5,1232.5C 1452.53,1231.44 1454.53,1230.44 1456.5,1229.5C 1462.99,1233.71 1469.99,1236.88 1477.5,1239C 1480.82,1239.5 1484.15,1239.67 1487.5,1239.5C 1485.24,1244.62 1481.91,1249.12 1477.5,1253C 1458.23,1269.6 1439.56,1286.93 1421.5,1305C 1407.83,1316 1394.17,1327 1380.5,1338C 1302.35,1390.25 1222.68,1440.25 1141.5,1488C 1122.47,1500.51 1103.47,1513.01 1084.5,1525.5C 1081.26,1526.46 1078.26,1527.8 1075.5,1529.5C 1022.21,1551.38 968.21,1571.71 913.5,1590.5C 912.833,1590.83 912.167,1591.17 911.5,1591.5C 894.223,1577.52 876.557,1564.02 858.5,1551C 824.354,1524.63 792.187,1495.79 762,1464.5C 751.968,1452.97 741.801,1441.64 731.5,1430.5C 729.167,1428 727.001,1425.33 725,1422.5C 724.216,1419.24 724.383,1416.07 725.5,1413C 734.515,1411 743.181,1408 751.5,1404C 783.502,1388.68 813.502,1370.35 841.5,1349C 859.621,1339.77 877.288,1329.77 894.5,1319C 913.017,1304.58 931.684,1290.41 950.5,1276.5C 955.543,1273.99 960.21,1270.99 964.5,1267.5C 966.483,1266.53 968.483,1265.53 970.5,1264.5C 976.745,1261.25 982.411,1257.25 987.5,1252.5C 995.425,1246.53 1003.76,1241.03 1012.5,1236C 1015.68,1231.73 1019.68,1228.4 1024.5,1226C 1026.04,1224.63 1027.37,1223.13 1028.5,1221.5C 1032.96,1218.1 1037.63,1214.93 1042.5,1212C 1046.74,1207.25 1051.41,1203.09 1056.5,1199.5C 1056.83,1199.5 1057.17,1199.5 1057.5,1199.5C 1062.2,1194.79 1067.2,1190.46 1072.5,1186.5 Z"/></g>
<g><path style="opacity:1" fill="#2e6ab8" d="M 1072.5,1186.5 C 1067.2,1190.46 1062.2,1194.79 1057.5,1199.5C 1058.62,1196.11 1060.62,1193.28 1063.5,1191C 1066.51,1189.62 1069.17,1187.78 1071.5,1185.5C 1072.11,1185.62 1072.44,1185.96 1072.5,1186.5 Z"/></g>
<g><path style="opacity:1" fill="#2866b6" d="M 1056.5,1199.5 C 1051.41,1203.09 1046.74,1207.25 1042.5,1212C 1037.63,1214.93 1032.96,1218.1 1028.5,1221.5C 1029.2,1219.28 1030.54,1217.45 1032.5,1216C 1035.51,1214.16 1038.51,1212.33 1041.5,1210.5C 1045.33,1205.1 1050.33,1201.43 1056.5,1199.5 Z"/></g>
<g><path style="opacity:1" fill="#9fd0fd" d="M 1456.5,1229.5 C 1454.53,1230.44 1452.53,1231.44 1450.5,1232.5C 1437.32,1245.18 1424.32,1258.01 1411.5,1271C 1410.17,1271.67 1408.83,1271.67 1407.5,1271C 1400.98,1266.74 1393.98,1263.57 1386.5,1261.5C 1387.78,1253.26 1389.95,1245.26 1393,1237.5C 1399.96,1233.27 1407.13,1229.44 1414.5,1226C 1422.38,1219.94 1429.71,1213.44 1436.5,1206.5C 1437.44,1206.61 1438.28,1206.94 1439,1207.5C 1442.45,1216.78 1448.28,1224.11 1456.5,1229.5 Z"/></g>
<g><path style="opacity:1" fill="#9fc0ec" d="M 1179.5,1225.5 C 1183.86,1226.17 1185.86,1228.83 1185.5,1233.5C 1181.88,1232.34 1178.88,1230.17 1176.5,1227C 1177.74,1226.77 1178.74,1226.27 1179.5,1225.5 Z"/></g>
<g><path style="opacity:1" fill="#a1d2fe" d="M 1290.5,1342.5 C 1216.96,1388.19 1143.13,1433.52 1069,1478.5C 1026.73,1451.38 984.896,1423.71 943.5,1395.5C 962.184,1387.66 980.851,1379.5 999.5,1371C 1066.89,1337.14 1130.23,1296.98 1189.5,1250.5C 1190.19,1251.03 1190.69,1251.69 1191,1252.5C 1191.89,1257.47 1192.55,1262.47 1193,1267.5C 1194.77,1274.37 1197.1,1281.04 1200,1287.5C 1204.18,1294.81 1208.52,1302.15 1213,1309.5C 1232.97,1333.49 1258.8,1344.49 1290.5,1342.5 Z"/></g>
<g><path style="opacity:1" fill="#719dd9" d="M 987.5,1252.5 C 982.411,1257.25 976.745,1261.25 970.5,1264.5C 970.937,1262.93 971.937,1261.76 973.5,1261C 978.333,1258.31 983,1255.48 987.5,1252.5 Z"/></g>
<g><path style="opacity:1" fill="#94b9e8" d="M 659.5,1259.5 C 658.833,1259.5 658.167,1259.5 657.5,1259.5C 658.167,1215.5 658.833,1215.5 659.5,1259.5 Z"/></g>
<g><path style="opacity:1" fill="#2865b6" d="M 1028.5,1221.5 C 1027.37,1223.13 1026.04,1224.63 1024.5,1226C 1019.68,1228.4 1015.68,1231.73 1012.5,1236C 1003.76,1241.03 995.425,1246.53 987.5,1252.5C 983,1255.48 978.333,1258.31 973.5,1261C 971.937,1261.76 970.937,1262.93 970.5,1264.5C 968.483,1265.53 966.483,1266.53 964.5,1267.5C 966.244,1265.25 968.244,1263.08 970.5,1261C 990.293,1248.35 1009.63,1235.18 1028.5,1221.5 Z"/></g>
<g><path style="opacity:1" fill="#c6defd" d="M 657.5,1259.5 C 658.167,1259.5 658.833,1259.5 659.5,1259.5C 659.541,1273.13 660.041,1286.8 661,1300.5C 663.892,1312.12 669.726,1321.96 678.5,1330C 686.947,1332.64 695.614,1334.31 704.5,1335C 706.394,1336.08 706.727,1337.41 705.5,1339C 696.719,1339.09 688.052,1340.09 679.5,1342C 673.141,1346.02 668.641,1351.52 666,1358.5C 662.759,1375.54 661.593,1392.54 662.5,1409.5C 660.922,1412.65 659.422,1415.98 658,1419.5C 656.61,1413.06 655.443,1406.73 654.5,1400.5C 654.632,1397.43 654.299,1394.43 653.5,1391.5C 653.966,1387.02 652.966,1383.02 650.5,1379.5C 648.113,1366.83 643.113,1355.33 635.5,1345C 632.446,1342.81 629.112,1341.14 625.5,1340C 618.391,1337.98 611.058,1337.14 603.5,1337.5C 598.5,1337.5 593.5,1337.5 588.5,1337.5C 588.5,1336.5 588.5,1335.5 588.5,1334.5C 593.13,1333.77 597.797,1333.44 602.5,1333.5C 611.322,1332.92 619.989,1331.42 628.5,1329C 632.873,1327.29 636.707,1324.79 640,1321.5C 644.569,1313.03 648.569,1304.37 652,1295.5C 653.433,1283.29 655.266,1271.29 657.5,1259.5 Z"/></g>
<g><path style="opacity:1" fill="#2f6bbb" d="M 964.5,1267.5 C 960.21,1270.99 955.543,1273.99 950.5,1276.5C 954.118,1272.02 958.784,1269.02 964.5,1267.5 Z"/></g>
<g><path style="opacity:1" fill="#034aad" d="M 603.5,1337.5 C 611.058,1337.14 618.391,1337.98 625.5,1340C 629.112,1341.14 632.446,1342.81 635.5,1345C 643.113,1355.33 648.113,1366.83 650.5,1379.5C 650.898,1383.76 651.898,1387.76 653.5,1391.5C 654.299,1394.43 654.632,1397.43 654.5,1400.5C 654.657,1401.87 654.49,1403.21 654,1404.5C 630.143,1387.47 613.309,1365.14 603.5,1337.5 Z"/></g>
<g><path style="opacity:1" fill="#8fb2e6" d="M 650.5,1379.5 C 652.966,1383.02 653.966,1387.02 653.5,1391.5C 651.898,1387.76 650.898,1383.76 650.5,1379.5 Z"/></g>
<g><path style="opacity:1" fill="#76deb9" d="M 1011.5,1394.5 C 1012.5,1394.5 1013.5,1394.5 1014.5,1394.5C 1013.75,1398.31 1012.75,1398.31 1011.5,1394.5 Z"/></g>
<g><path style="opacity:1" fill="#a1d2fe" d="M 1075.5,1529.5 C 1075.94,1529.43 1076.27,1529.6 1076.5,1530C 1034.02,1560.75 988.358,1586.08 939.5,1606C 936.28,1607.53 932.947,1608.19 929.5,1608C 924.329,1602 918.996,1596.16 913.5,1590.5C 968.21,1571.71 1022.21,1551.38 1075.5,1529.5 Z"/></g>
<g><path style="opacity:1" fill="#beddff" d="M 1084.5,1525.5 C 1078.99,1531.18 1072.99,1536.34 1066.5,1541C 1023.52,1569.33 978.182,1593.16 930.5,1612.5C 923.935,1605.7 917.602,1598.7 911.5,1591.5C 912.167,1591.17 912.833,1590.83 913.5,1590.5C 918.996,1596.16 924.329,1602 929.5,1608C 932.947,1608.19 936.28,1607.53 939.5,1606C 988.358,1586.08 1034.02,1560.75 1076.5,1530C 1076.27,1529.6 1075.94,1529.43 1075.5,1529.5C 1078.26,1527.8 1081.26,1526.46 1084.5,1525.5 Z"/></g>
</svg>
